:FULLY-SPECIFIED
:FORCE-ALL-JOINTS-BE-3DOF
:DEGREES
485
root 10.8785 17.2849 31.6207 4.37453 4.20293 4.42027
lfemur 10.2636 2.48964 -29.2785
ltibia 2.69398 -0 0
lfoot -15.0131 4.41865 0.00155647
ltoes 2.8379 -0 0
rfemur -40.1238 9.07117 10.3235
rtibia 30.0733 -0 0
rfoot -22.5808 -7.17867 -0.00132959
rtoes -14.9791 0 0
lowerback -6.48561 -4.64932 -4.87892
upperback 0.928444 -5.87928 1.47369
thorax 5.25208 -3.0744 3.59016
lowerneck -22.9968 -2.39334 -9.58415
upperneck 24.5196 -2.821 10.0182
head 12.1908 -0.843639 4.96427
lclavicle 2.92876e-14 -5.30087e-16 0
lhumerus -8.85069 -22.3228 83.9229
lradius 32.9352 -0 0
lwrist 7.63789 0 0
lhand -17.9545 -25.9204 0.0011657
lfingers 7.12502 0 0
lthumb 8.31422 3.89579 0.00109339
rclavicle 2.92876e-14 -5.30087e-16 0
rhumerus -47.9611 8.75512 -85.6743
rradius 38.0057 -0 0
rwrist -19.8873 0 0
rhand -31.4222 -23.5889 0.00145939
rfingers 7.12502 0 0
rthumb -4.69082 -53.5164 0.00136394
486
root 10.8734 17.2717 31.7635 4.39849 4.21797 4.63448
lfemur 11.4988 2.45485 -29.4408
ltibia 1.34699 -0 0
lfoot -14.7933 4.52011 0.000972789
ltoes 2.40856 -0 0
rfemur -40.6229 9.82937 9.63867
rtibia 29.4284 -0 0
rfoot -23.155 -7.14551 -0.00083097
rtoes -15.7205 0 0
lowerback -6.51248 -4.69222 -5.05944
upperback 0.897414 -5.91759 1.41038
thorax 5.25067 -3.09669 3.6184
lowerneck -22.8711 -2.38474 -9.59039
upperneck 24.4783 -2.81876 10.0289
head 12.1497 -0.844268 4.9664
lclavicle 3.9318e-14 -4.63831e-15 0
lhumerus -9.11573 -22.5575 84.0838
lradius 33.2929 -0 0
lwrist 7.57219 0 0
lhand -18.0648 -26.0719 0.000728563
lfingers 7.12502 0 0
lthumb 8.20781 3.74861 0.000683364
rclavicle 3.9318e-14 -4.63831e-15 0
rhumerus -48.1671 8.61217 -85.6169
rradius 37.7549 -0 0
rwrist -19.817 0 0
rhand -31.248 -23.4689 0.000912114
rfingers 7.12502 0 0
rthumb -4.52261 -53.4002 0.000852459
487
root 10.8684 17.2584 31.9063 4.42251 4.23293 4.84871
lfemur 12.734 2.42356 -29.6038
ltibia 2.8625e-14 0 0
lfoot -14.5736 4.62157 0
ltoes 1.97923 0 0
rfemur -41.1324 10.5816 8.94555
rtibia 28.7835 0 0
rfoot -23.7293 -7.11235 0
rtoes -16.4619 0 0
lowerback -6.53922 -4.73521 -5.23995
upperback 0.866424 -5.95593 1.34709
thorax 5.24925 -3.11898 3.64664
lowerneck -22.7455 -2.37613 -9.59661
upperneck 24.4371 -2.81651 10.0396
head 12.1086 -0.844895 4.96853
lclavicle 4.93483e-14 -8.74653e-15 0
lhumerus -9.38194 -22.7914 84.2462
lradius 33.6506 0 0
lwrist 7.50649 0 0
lhand -18.175 -26.2233 0
lfingers 7.12502 0 0
lthumb 8.1014 3.60143 0
rclavicle 4.93483e-14 -8.74653e-15 0
rhumerus -48.3732 8.46943 -85.559
rradius 37.504 0 0
rwrist -19.7468 0 0
rhand -31.0738 -23.3489 0
rfingers 7.12502 0 0
rthumb -4.35441 -53.2841 0
488
root 10.8519 17.2362 32.0565 4.47906 4.35209 4.93626
lfemur 13.2632 2.27059 -29.5613
ltibia 2.43843e-14 0 0
lfoot -14.8179 4.60682 0.000157316
ltoes 2.10789 -0 0
rfemur -41.4144 11.1641 8.53324
rtibia 28.5193 -0 0
rfoot -24.6919 -7.34579 0.00981129
rtoes -13.5432 0 0
lowerback -6.42771 -4.81759 -5.32252
upperback 0.720137 -6.06503 1.29745
thorax 5.04858 -3.16708 3.64452
lowerneck -22.7123 -2.37579 -9.64386
upperneck 24.5938 -2.86795 10.2246
head 12.1744 -0.85095 5.04866
lclavicle 4.5501e-14 -3.57813e-15 0
lhumerus -10.0276 -23.0554 84.4906
lradius 33.9143 -0 0
lwrist 7.32889 0 0
lhand -17.5816 -26.2327 -0.000244272
lfingers 7.12502 0 0
lthumb 8.67393 3.56496 -0.000911362
rclavicle 4.5501e-14 -3.57813e-15 0
rhumerus -48.7425 8.32028 -85.5801
rradius 37.2574 -0 0
rwrist -19.5738 0 0
rhand -30.7258 -23.3212 0.000420421
rfingers 7.12502 0 0
rthumb -4.01829 -53.2617 0.000328522
489
root 10.8353 17.214 32.2066 4.53581 4.47116 5.02394
lfemur 13.7922 2.11723 -29.5203
ltibia 2.01435e-14 0 0
lfoot -15.0623 4.59206 0.000251706
ltoes 2.23655 -0 0
rfemur -41.7013 11.7446 8.11715
rtibia 28.2551 -0 0
rfoot -25.6546 -7.57937 0.0156992
rtoes -10.6244 0 0
lowerback -6.31607 -4.89981 -5.40526
upperback 0.573915 -6.17426 1.24807
thorax 4.8479 -3.21518 3.64258
lowerneck -22.6791 -2.37543 -9.6911
upperneck 24.7503 -2.91989 10.4095
head 12.2402 -0.857096 5.12878
lclavicle 4.16537e-14 1.59028e-15 0
lhumerus -10.6757 -23.3168 84.7387
lradius 34.178 -0 0
lwrist 7.15129 0 0
lhand -16.9881 -26.2422 -0.000390846
lfingers 7.12502 0 0
lthumb 9.24647 3.52847 -0.00145822
rclavicle 4.16537e-14 1.59028e-15 0
rhumerus -49.1116 8.171 -85.6003
rradius 37.0109 -0 0
rwrist -19.4009 0 0
rhand -30.3777 -23.2935 0.000672679
rfingers 7.12502 0 0
rthumb -3.68217 -53.2393 0.000525639
490
root 10.8188 17.1918 32.3568 4.59275 4.59015 5.11176
lfemur 14.3211 1.96349 -29.4807
ltibia 1.59028e-14 0 0
lfoot -15.3066 4.5773 0.00028317
ltoes 2.36522 -0 0
rfemur -41.9931 12.3231 7.6972
rtibia 27.9909 -0 0
rfoot -26.6173 -7.81301 0.0176621
rtoes -7.70571 0 0
lowerback -6.20429 -4.98187 -5.48817
upperback 0.427758 -6.28361 1.19897
thorax 4.64722 -3.26329 3.6408
lowerneck -22.6459 -2.37503 -9.73835
upperneck 24.9067 -2.97234 10.5943
head 12.3059 -0.863335 5.2089
lclavicle 3.78063e-14 6.75868e-15 0
lhumerus -11.3263 -23.5756 84.9904
lradius 34.4416 -0 0
lwrist 6.97369 0 0
lhand -16.3947 -26.2516 -0.000439706
lfingers 7.12502 0 0
lthumb 9.819 3.49199 -0.00164051
rclavicle 3.78063e-14 6.75868e-15 0
rhumerus -49.4805 8.0216 -85.6195
rradius 36.7643 -0 0
rwrist -19.2279 0 0
rhand -30.0297 -23.2659 0.000756767
rfingers 7.12502 0 0
rthumb -3.34605 -53.2169 0.000591346
